<svg width="16" height="18" viewBox="0 0 16 18" fill="none" xmlns="http://www.w3.org/2000/svg">
<path fill-rule="evenodd" clip-rule="evenodd" d="M14.5 5.875H1.5V15.875H14.5V5.875ZM0 4.375V17.375H16V4.375H0Z" fill="#050505"/>
<path fill-rule="evenodd" clip-rule="evenodd" d="M5.75 5.3755C5.75 5.3755 5.75 5.375 5 5.375C4.25 5.375 4.25 5.3744 4.25 5.3744L4.25 5.37206L4.25002 5.36764L4.25015 5.35445C4.25028 5.34377 4.25052 5.32931 4.25097 5.31133C4.25186 5.2754 4.2536 5.22529 4.25693 5.163C4.2636 5.03865 4.27672 4.86455 4.30267 4.65697C4.35407 4.24572 4.45811 3.68404 4.67275 3.11166C4.88623 2.54239 5.2242 1.92225 5.76735 1.43944C6.32599 0.942877 7.06561 0.625 8 0.625C8.93439 0.625 9.67401 0.942877 10.2326 1.43944C10.7758 1.92225 11.1138 2.54239 11.3272 3.11166C11.5419 3.68404 11.6459 4.24572 11.6973 4.65697C11.7233 4.86455 11.7364 5.03865 11.7431 5.163C11.7464 5.22529 11.7481 5.2754 11.749 5.31133C11.7495 5.32931 11.7497 5.34377 11.7499 5.35445L11.75 5.36764L11.75 5.37206L11.75 5.37371C11.75 5.37371 11.75 5.375 11 5.375C10.25 5.375 10.25 5.3755 10.25 5.3755L10.25 5.3726L10.2495 5.34882C10.2489 5.32616 10.2477 5.29034 10.2452 5.24325C10.2402 5.14885 10.2298 5.01045 10.2089 4.84303C10.1666 4.50428 10.0831 4.06596 9.92275 3.63834C9.76123 3.20761 9.5367 2.82775 9.2361 2.56056C8.95099 2.30712 8.56561 2.125 8 2.125C7.43439 2.125 7.04901 2.30712 6.7639 2.56056C6.4633 2.82775 6.23877 3.20761 6.07725 3.63834C5.91689 4.06596 5.83343 4.50428 5.79108 4.84303C5.77015 5.01045 5.75984 5.14885 5.75479 5.24325C5.75226 5.29034 5.75106 5.32616 5.7505 5.34882L5.75004 5.3726L5.75 5.3755Z" fill="#050505"/>
</svg>
